<?xml version="1.0" encoding="utf-8"?>
<svg xmlns="http://www.w3.org/2000/svg" xmlns:xlink="http://www.w3.org/1999/xlink" version= "1.1" width="3000px" height="3000px" viewBox="-1140 -815 3000 3000">
<g id="layer1" opacity="0.0">
<g style="fill:rgb(9,79,164); fill-opacity:1.0; stroke-linejoin: miter">
</g>
<g style="fill:rgb(9,79,164); fill-opacity:1.0; stroke-linejoin: miter">
</g>
<g style="fill:rgb(9,79,164); fill-opacity:1.0; stroke-linejoin: miter">
</g>
<g style="fill:rgb(9,79,164); fill-opacity:1.0; stroke-linejoin: miter">
</g>
<g style="fill:rgb(9,79,164); fill-opacity:1.0; stroke-linejoin: miter">
</g>
<g style="fill:rgb(9,79,164); fill-opacity:1.0; stroke-linejoin: miter">
<path d="M-1191.6848,667.228L-1191.6848,667.228L-1191.6848,667.229C-1191.6848,669.066,-1193.1741,670.5551,-1195.011,670.5551C-1196.8479,670.5551,-1198.3372,669.066,-1198.3372,667.229L-1198.3372,667.229L-1198.3372,667.228C-1198.3372,665.39105,-1196.8479,663.9019,-1195.011,663.9019C-1193.1741,663.9019,-1191.6848,665.39105,-1191.6848,667.228 Z"/>
</g>
<g style="fill:rgb(9,79,164); fill-opacity:1.0; stroke-linejoin: miter">
<path d="M-1191.3767,518.4294L-1191.3767,518.4294L-1191.3767,518.4284C-1191.3691,516.59143,-1192.8522,515.0961,-1194.6891,515.0885C-1196.526,515.08093,-1198.0215,516.5639,-1198.029,518.4009L-1198.029,518.4009L-1198.029,518.40186C-1198.0367,520.23883,-1196.5536,521.7341,-1194.7167,521.74164C-1192.8798,521.74927,-1191.3844,520.26636,-1191.3767,518.4294 Z"/>
</g>
<g style="fill:rgb(9,79,164); fill-opacity:1.0; stroke-linejoin: miter">
<path d="M-326.3681,966.8095L-306.75314,896.9306L-287.13818,827.0517Q-207.88675,812.8663,-128.63533,798.68085Q-225.0838,884.57043,-321.53226,970.46L-326.3681,966.8095"/>
</g>
<g style="fill:rgb(9,79,164); fill-opacity:1.0; stroke-linejoin: miter">
<path d="M-316.98358,740.70245L-468.20038,692.01Q-471.13702,678.5792,-460.20465,661.9526Q-451.48517,647.0946,-409.24454,597.55597L-434.8805,487.79486L-346.1109,554.4214L-294.22437,568.14087L-319.46008,594.96014L-359.94318,633.998L-316.98358,740.70245"/>
</g>
<g style="fill:rgb(101,170,251); fill-opacity:1.0; stroke-linejoin: miter">
<path d="M-127.88393,390.3295L-127.88393,390.33L-267.47604,366.13153Q-293.7213,292.26013,-319.96658,218.38873L-127.88393,390.3295"/>
</g>
<g style="fill:rgb(101,170,251); fill-opacity:1.0; stroke-linejoin: miter">
<path d="M-732.9696,592.4349L-732.9696,592.43536L-469.47247,495.5095Q-472.53098,543.5652,-475.58948,591.6209L-732.9696,592.4349"/>
</g>
<g style="fill:rgb(105,149,236); fill-opacity:1.0; stroke-linejoin: miter">
<path d="M-470.2084,495.125L-473.0868,545.56506L-475.96518,596.0051Q-441.0881,594.6469,-406.21103,593.2887Q-420.04724,538.6382,-433.88345,483.98773L-470.2084,495.125"/>
</g>
<g style="fill:rgb(79,144,236); fill-opacity:1.0; stroke-linejoin: miter">
<path d="M-436.21332,486.528L-436.21332,486.5285L-130.37875,389.04156Q-213.06068,480.78802,-295.7426,572.53455L-348.42502,554.7613L-436.21332,486.528"/>
</g>
<g style="fill:rgb(139,171,254); fill-opacity:1.0; stroke-linejoin: miter">
<path d="M-290.61908,426.82635L-222.3309,406.01846L-154.04274,385.21057Q-223.17474,374.11432,-292.30676,363.01807L-290.61908,426.82635"/>
</g>
<g style="fill:rgb(162,186,253); fill-opacity:1.0; stroke-linejoin: miter">
<path d="M-331.88586,227.77515L-319.08154,218.48528L-265.55176,370.2508L-288.9471,366.11554L-288.62756,425.03876L-444.0733,472.63763L-331.88586,227.77515"/>
</g>
<g style="fill:rgb(115,86,148); fill-opacity:1.0; stroke-linejoin: miter">
<path d="M-474.4651,591.5504L-474.4651,591.5509L-469.85242,693.68207Q-437.69702,643.3342,-405.54163,592.98645L-474.4651,591.5504"/>
</g>
<g style="fill:rgb(138,105,167); fill-opacity:1.0; stroke-linejoin: miter">
<path d="M-468.8848,692.12756L-468.8848,692.12805L-473.1631,592.05963Q-603.82227,592.07153,-734.4815,592.0834L-468.8848,692.12756"/>
</g>
<g style="fill:rgb(123,91,161); fill-opacity:1.0; stroke-linejoin: miter">
<path d="M-322.41394,969.2438L-304.08005,899.46155L-285.74615,829.6794Q-208.46716,814.1478,-131.18817,798.6162Q-294.3332,751.9929,-457.47818,705.3696L-322.41394,969.2438"/>
</g>
<g style="fill:rgb(102,77,171); fill-opacity:1.0; stroke-linejoin: miter">
<path d="M-322.4028,968.6944L-322.4028,968.6949L-464.5058,703.7232Q-599.031,647.70544,-733.5562,591.6876L-322.4028,968.6944"/>
</g>
<g style="fill:rgb(151,172,251); fill-opacity:1.0; stroke-linejoin: miter">
<path d="M-732.5158,591.95404L-732.5158,591.9545Q-582.5228,529.80383,-432.52985,467.65222Q-381.98502,348.3352,-331.44016,229.01822L-732.5158,591.95404"/>
</g>
<g style="fill:rgb(86,106,211); fill-opacity:1.0; stroke-linejoin: miter">
<path d="M-321.54602,736.79755L-321.54602,736.79803L-130.78035,797.73834Q-223.74435,695.1168,-316.70837,592.4953Q-340.31583,611.9985,-363.92328,631.50165L-321.54602,736.79755"/>
</g>
<g style="fill:rgb(101,170,251); fill-opacity:1.0; stroke-linejoin: miter">
<path d="M-128.02757,390.4864L-128.02757,390.4869L-267.3332,367.3841Q-292.35376,293.58224,-317.37433,219.78041L-128.02757,390.4864"/>
</g>
<g style="fill:rgb(79,144,236); fill-opacity:1.0; stroke-linejoin: miter">
<path d="M-170.81523,433.55942L-170.81523,433.5599L-177.03036,415.89603Q-153.15121,402.16672,-129.27205,388.4374Q-130.63214,393.1776,-131.99222,397.91785L-170.81523,433.55942"/>
</g>
<g style="fill:rgb(123,91,161); fill-opacity:1.0; stroke-linejoin: miter">
<path d="M-168.7834,798.40137L-168.7834,798.4018L-127.8889,798.16077Q-130.5751,801.1276,-133.26132,804.0945Q-150.46103,804.095,-167.66075,804.0954L-168.7834,798.40137"/>
</g>
<g style="fill:rgb(123,91,161); fill-opacity:1.0; stroke-linejoin: miter">
</g>
<g style="fill:rgb(255,255,255); fill-opacity:1.0; stroke-linejoin: miter">
<path d="M-321.25156,970.46466L-396.21826,834.3393L-471.18494,698.2139Q-464.7123,699.6119,-458.23965,701.00977L-321.25156,970.46466"/>
</g>
<g style="fill:rgb(255,255,255); fill-opacity:1.0; stroke-linejoin: miter">
<path d="M-128.00018,799.6531L-128.11426,796.2688L-470.3184,690.0006L-732.34296,592.18567L-732.94714,593.3302L-465.81982,703.6382L-128.00018,799.6531"/>
</g>
<g style="fill:rgb(255,255,255); fill-opacity:1.0; stroke-linejoin: miter">
<path d="M-293.92172,861.74005L-293.92172,861.74054Q-289.09113,846.8074,-284.26056,831.8733Q-260.0278,825.6289,-235.79503,819.3846Q-261.37256,823.60803,-286.95007,827.8315L-293.92172,861.74005"/>
</g>
<g style="fill:rgb(255,255,255); fill-opacity:1.0; stroke-linejoin: miter">
<path d="M-417.00027,611.0466L-417.00027,611.04706Q-411.66025,602.08606,-406.32022,593.1241Q-407.869,586.98175,-409.41776,580.8394Q-407.12735,587.0502,-404.8369,593.2609L-417.00027,611.0466"/>
</g>
<g style="fill:rgb(255,255,255); fill-opacity:1.0; stroke-linejoin: miter">
<path d="M-473.33926,591.1223L-470.71793,642.78345L-468.09662,694.4446Q-472.47076,693.2054,-476.84494,691.9662L-473.33926,591.1223"/>
</g>
<g style="fill:rgb(255,255,255); fill-opacity:1.0; stroke-linejoin: miter">
<path d="M-475.7152,592.0852L-603.38495,593.1602L-731.05475,594.23517Q-731.03156,592.94055,-731.0084,591.64594Q-603.35913,591.6134,-475.7098,591.5808L-475.7152,592.0852"/>
</g>
<g style="fill:rgb(255,255,255); fill-opacity:1.0; stroke-linejoin: miter">
<path d="M-364.0558,631.38586L-364.0558,631.38635L-319.9799,738.4692Q-325.41226,736.80597,-330.84464,735.14276L-364.0558,631.38586"/>
</g>
<g style="fill:rgb(102,77,171); fill-opacity:1.0; stroke-linejoin: miter">
<path d="M-742.57983,602.27966L-684.1294,724.9432L-625.67896,847.6066Q-584.8328,914.6821,-543.9867,981.75757Q-645.83264,928.56274,-747.6786,875.36786L-742.57983,602.27966"/>
</g>
<g style="fill:rgb(102,77,171); fill-opacity:1.0; stroke-linejoin: miter">
<path d="M-742.5446,585.23737L-683.5868,462.81696L-624.62897,340.39655Q-583.50543,273.49078,-542.38196,206.58502Q-644.44727,259.35773,-746.5126,312.13037L-742.5446,585.23737"/>
</g>
<g style="fill:rgb(102,77,171); fill-opacity:1.0; stroke-linejoin: miter">
<path d="M-871.43384,594.9051L-831.2129,594.4252L-790.992,593.94525Q-769.4877,657.02344,-747.9833,720.10156L-871.43384,594.9051"/>
</g>
<g style="fill:rgb(102,77,171); fill-opacity:1.0; stroke-linejoin: miter">
<path d="M-871.428,592.07825L-831.20935,592.7247L-790.99084,593.37115Q-769.2255,530.3825,-747.4601,467.39398L-871.428,592.07825"/>
</g>
<g style="fill:rgb(9,79,164); fill-opacity:1.0; stroke-linejoin: miter">
<path d="M-544.4957,981.1629L-544.4957,981.1634L-559.00616,873.71936Q-524.0023,862.9506,-488.9985,852.1819L-544.4957,981.1629"/>
</g>
<g style="fill:rgb(9,79,164); fill-opacity:1.0; stroke-linejoin: miter">
<path d="M-542.8934,207.17743L-542.8934,207.17694L-557.8485,314.55994Q-522.8896,325.4735,-487.93066,336.3871L-542.8934,207.17743"/>
</g>
<g style="fill:rgb(123,91,161); fill-opacity:1.0; stroke-linejoin: miter">
<path d="M-740.5484,604.82025L-631.2428,851.9575L-544.2411,982.1542L-557.39044,875.0044L-489.15967,853.1996L-740.5484,604.82025"/>
</g>
<g style="fill:rgb(123,91,161); fill-opacity:1.0; stroke-linejoin: miter">
<path d="M-740.5026,582.7051L-630.1746,336.02258L-542.6345,206.18726L-556.2275,313.28168L-488.08755,335.36884L-740.5026,582.7051"/>
</g>
<g style="fill:rgb(115,86,148); fill-opacity:1.0; stroke-linejoin: miter">
<path d="M-747.9965,720.0878L-747.9965,720.0883L-740.7031,604.21265Q-745.8781,599.00165,-751.05304,593.7906Q-771.1809,593.8593,-791.3088,593.92804L-747.9965,720.0878"/>
</g>
<g style="fill:rgb(115,86,148); fill-opacity:1.0; stroke-linejoin: miter">
<path d="M-747.4734,467.40778L-747.4734,467.4073L-740.65985,583.3122Q-745.8564,588.5017,-751.0528,593.69135Q-771.18024,593.53925,-791.3077,593.3872L-747.4734,467.40778"/>
</g>
<g style="fill:rgb(115,86,148); fill-opacity:1.0; stroke-linejoin: miter">
</g>
<g style="fill:rgb(115,86,148); fill-opacity:1.0; stroke-linejoin: miter">
</g>
<g style="fill:rgb(151,172,251); fill-opacity:1.0; stroke-linejoin: miter">
<path d="M-543.18964,206.74034C-543.23157,206.74034,-543.2728,206.75035,-543.31006,206.7696L-568.72546,219.91058Q-657.6792,265.90405,-746.63293,311.8974C-746.72125,311.94302,-746.77625,312.0347,-746.7747,312.13412L-743.4626,540.0978L-743.4622,540.1094L-741.02576,581.55554C-741.01874,581.67487,-740.932,581.7743,-740.8148,581.7974C-740.79785,581.80084,-740.78076,581.8025,-740.764,581.8024C-740.6648,581.8024,-740.5721,581.74603,-740.5278,581.654L-729.56165,558.884L-729.55853,558.87726L-629.94464,336.15024L-542.9668,207.14917C-542.9126,207.06877,-542.90717,206.96504,-542.9527,206.87943C-542.9982,206.79381,-543.0873,206.74033,-543.1842,206.74034 Z"/>
</g>
<g style="fill:rgb(101,170,251); fill-opacity:1.0; stroke-linejoin: miter">
<path d="M-542.7907,207.11969C-542.8044,207.1197,-542.8182,207.12062,-542.83203,207.12254C-542.9657,207.14113,-543.0703,207.24702,-543.08734,207.38095L-556.52405,313.24396C-556.5421,313.38644,-556.45636,313.52164,-556.3197,313.56592L-488.50027,335.54913C-488.46994,335.55896,-488.43893,335.5637,-488.40817,335.5637C-488.3256,335.5637,-488.24515,335.52948,-488.18756,335.46655C-488.1085,335.38016,-488.0872,335.25552,-488.133,335.14777L-542.5158,207.3016C-542.5632,207.19022,-542.6723,207.11969,-542.7907,207.11969 Z"/>
</g>
<g style="fill:rgb(162,186,253); fill-opacity:1.0; stroke-linejoin: miter">
<path d="M-542.9434,207.0302C-543.1372,207.03018,-543.30347,207.14787,-543.3747,207.3157L-543.38007,207.31671Q-584.204,273.73306,-625.02783,340.1513L-625.0508,340.1933L-684.0086,462.61386L-730.2197,558.56696L-730.22534,558.579L-740.9301,582.51385C-741.022,582.7192,-740.9548,582.9608,-740.7702,583.0893C-740.6893,583.1456,-740.59576,583.1732,-740.50287,583.1733C-740.38367,583.1732,-740.2652,583.12787,-740.17505,583.0395L-488.71173,336.63577L-488.70688,336.63678Q-488.38864,336.73462,-488.07016,336.83405C-488.0243,336.84833,-487.97726,336.8553,-487.93076,336.8553C-487.80057,336.8553,-487.67368,336.80093,-487.58353,336.70126C-487.461,336.56595,-487.42834,336.3718,-487.4998,336.20383L-487.8514,335.3772C-487.91232,335.234,-488.0403,335.13043,-488.19315,335.1008C-488.22275,335.09503,-488.25262,335.09222,-488.2823,335.09222C-488.40524,335.09222,-488.5247,335.14072,-488.6133,335.22937L-488.9661,335.57434Q-523.1151,324.91272,-557.3247,314.2331L-557.3303,314.2341L-542.4744,207.56429C-542.474,207.56111,-542.4736,207.55792,-542.4732,207.55473C-542.4571,207.42168,-542.4987,207.28816,-542.5876,207.18788C-542.67645,207.0876,-542.804,207.0302,-542.938,207.03018 Z"/>
</g>
<g style="fill:rgb(105,149,236); fill-opacity:1.0; stroke-linejoin: miter">
<path d="M-747.4785,467.1876C-747.5894,467.18753,-747.6881,467.25784,-747.72424,467.3626L-756.42676,492.54736Q-773.80096,542.8279,-791.17505,593.1083L-791.29614,593.1063C-791.29755,593.1064,-791.2989,593.10626,-791.30023,593.10626C-791.36847,593.10626,-791.434,593.13306,-791.48267,593.18097C-791.5323,593.22986,-791.56036,593.2966,-791.56036,593.3663L-791.56683,593.36725C-791.57153,593.42554,-791.55597,593.4854,-791.5213,593.5354C-791.4732,593.60486,-791.3942,593.6466,-791.3097,593.6472Q-771.17834,593.79926,-751.0548,593.9512L-751.0528,593.95123C-750.9839,593.95123,-750.91785,593.9239,-750.86914,593.8752L-749.16907,592.1774Q-745.82043,588.8332,-742.4716,585.4891L-742.4791,585.49005C-742.40704,585.4702,-742.34436,585.42084,-742.3103,585.3503L-742.27905,585.2851C-742.24194,585.2109,-742.2428,585.1242,-742.27954,585.0515L-742.28723,585.0525L-742.9405,540.09015L-742.941,540.0787L-747.2117,467.43228C-747.2197,467.29483,-747.33344,467.18756,-747.47107,467.18756 Z"/>
</g>
<g style="fill:rgb(101,170,251); fill-opacity:1.0; stroke-linejoin: miter">
<path d="M-747.47156,467.20743C-747.5243,467.20743,-747.57495,467.22845,-747.61206,467.26584L-871.5684,591.93866C-871.6245,591.995,-871.6414,592.0793,-871.6115,592.1529C-871.58154,592.22656,-871.5105,592.27515,-871.4311,592.27637L-831.2125,592.92285L-791.3139,593.56415L-791.3219,593.5651C-791.3146,593.565,-791.3074,593.56537,-791.3002,593.56537C-791.21716,593.56537,-791.1413,593.51306,-791.11334,593.4324L-747.31775,467.5629L-747.3252,467.5639C-747.30664,467.5423,-747.29205,467.5176,-747.28326,467.4897Q-747.2799,467.4791,-747.2769,467.4706C-747.25586,467.4101,-747.2654,467.34305,-747.3026,467.2908C-747.3397,467.23853,-747.39996,467.20743,-747.4641,467.20746 Z"/>
</g>
<g style="fill:rgb(162,186,253); fill-opacity:1.0; stroke-linejoin: miter">
<path d="M-713.7865,522.1592L-713.7865,522.15967L-630.27795,335.9889Q-590.6837,277.07852,-551.0894,218.16815Q-549.7076,220.27713,-548.32574,222.38611L-713.7865,522.1592"/>
</g>
<g style="fill:rgb(162,186,253); fill-opacity:1.0; stroke-linejoin: miter">
<path d="M-487.17508,335.57336L-487.17508,335.57388L-556.04706,313.01263Q-549.1835,262.2774,-542.3198,211.54216Q-559.9887,266.91296,-577.6576,322.2838L-487.17508,335.57336"/>
</g>
<g style="fill:rgb(255,255,255); fill-opacity:1.0; stroke-linejoin: miter">
<path d="M-733.0954,591.6062L-468.7703,495.7858L-128.98547,390.04745L-140.75677,377.40436L-475.513,481.39368L-733.0954,591.6062"/>
</g>
<g style="fill:rgb(255,255,255); fill-opacity:1.0; stroke-linejoin: miter">
<path d="M-472.69565,541.0499L-472.69565,541.0504Q-464.58594,513.0899,-456.47623,485.12845Q-464.97778,488.49588,-473.47934,491.86328L-472.69565,541.0499"/>
</g>
<g style="fill:rgb(255,255,255); fill-opacity:1.0; stroke-linejoin: miter">
<path d="M-731.6927,592.57007L-731.6927,592.5705L-576.3811,534.8051Q-584.67566,534.883,-592.9702,534.96094Q-661.191,562.61725,-729.4117,590.27356L-731.6927,592.57007"/>
</g>
<g style="fill:rgb(255,255,255); fill-opacity:1.0; stroke-linejoin: miter">
<path d="M-465.3178,495.50928L-315.03177,448.33948L-164.74573,401.16968Q-168.02405,396.04813,-171.30237,390.92657Q-319.219,439.44162,-467.13562,487.95667L-465.3178,495.50928"/>
</g>
<g style="fill:rgb(255,255,255); fill-opacity:1.0; stroke-linejoin: miter">
<path d="M-406.23276,509.82642L-421.20953,496.7025L-436.1863,483.57864Q-439.4362,484.97836,-442.68604,486.37805L-406.23276,509.82642"/>
</g>
<g style="fill:rgb(255,255,255); fill-opacity:1.0; stroke-linejoin: miter">
<path d="M-348.89142,554.5823L-322.6081,562.669L-296.32477,570.7557Q-298.2321,571.85583,-300.13943,572.956L-348.89142,554.5823"/>
</g>
<g style="fill:rgb(255,255,255); fill-opacity:1.0; stroke-linejoin: miter">
<path d="M-365.04202,309.14038L-365.04202,309.14087L-328.26447,225.74295Q-330.53076,226.88814,-332.79706,228.03333L-365.04202,309.14038"/>
</g>
<g style="fill:rgb(255,255,255); fill-opacity:1.0; stroke-linejoin: miter">
<path d="M-291.05035,297.25104L-291.05035,297.25156L-322.3038,221.75276Q-319.85556,220.89323,-317.40735,220.0337L-291.05035,297.25104"/>
</g>
<g style="fill:rgb(255,255,255); fill-opacity:1.0; stroke-linejoin: miter">
<path d="M-288.50134,366.46982L-288.50134,366.47034Q-288.50134,366.47156,-288.50134,366.46982"/>
</g>
<g style="fill:rgb(255,255,255); fill-opacity:1.0; stroke-linejoin: miter">
<path d="M-742.6413,606.76575L-742.6413,606.76624L-738.5959,605.9461Q-684.5963,729.52997,-630.5968,853.11383L-742.6413,606.76575"/>
</g>
<g style="fill:rgb(255,255,255); fill-opacity:1.0; stroke-linejoin: miter">
<path d="M-742.5875,580.7509L-742.5875,580.7504L-738.5455,581.58734Q-684.0347,458.22815,-629.5239,334.8689L-742.5875,580.7509"/>
</g>
<g style="fill:rgb(255,255,255); fill-opacity:1.0; stroke-linejoin: miter">
<path d="M-547.2266,981.8946L-547.2266,981.8951L-544.029,980.67706Q-586.9966,917.3716,-629.96423,854.0661L-547.2266,981.8946"/>
</g>
<g style="fill:rgb(255,255,255); fill-opacity:1.0; stroke-linejoin: miter">
<path d="M-545.62115,206.43433L-545.62115,206.43384L-542.4285,207.6651Q-585.6579,270.7921,-628.8873,333.91913L-545.62115,206.43433"/>
</g>
<g style="fill:rgb(255,255,255); fill-opacity:1.0; stroke-linejoin: miter">
<path d="M-871.61865,597.4925L-871.61865,597.493L-766.2799,593.64325Q-819.83936,591.5213,-873.3988,589.3994L-871.61865,597.4925"/>
</g>
<g style="fill:rgb(255,255,255); fill-opacity:1.0; stroke-linejoin: miter">
<path d="M-871.60205,589.49023L-871.60205,589.48975L-766.28015,593.7756Q-819.84796,595.6757,-873.4157,597.57587L-871.60205,589.49023"/>
</g>
<g style="fill:rgb(255,255,255); fill-opacity:1.0; stroke-linejoin: miter">
</g>
<g style="fill:rgb(255,255,255); fill-opacity:1.0; stroke-linejoin: miter">
</g>
<g style="fill:rgb(255,255,255); fill-opacity:1.0; stroke-linejoin: miter">
<path d="M-781.48553,622.76953L-766.4835,670.3679L-751.4815,717.96625Q-747.9288,719.3943,-744.3761,720.82227L-781.48553,622.76953"/>
</g>
<g style="fill:rgb(255,255,255); fill-opacity:1.0; stroke-linejoin: miter">
<path d="M-786.5607,580.07574L-765.7865,525.1356L-745.01227,470.19543Q-747.6817,468.7528,-750.3511,467.31015L-786.5607,580.07574"/>
</g>
<g style="fill:rgb(151,172,251); fill-opacity:1.0; stroke-linejoin: miter">
<path d="M-630.1779,335.84473L-630.1779,335.8452Q-630.1779,335.8465,-630.1779,335.84473"/>
</g>
<g style="fill:rgb(255,255,255); fill-opacity:1.0; stroke-linejoin: miter">
<path d="M-552.1953,288.34286L-552.1953,288.34338L-555.8208,313.02298Q-543.0757,317.2567,-530.33057,321.49042Q-544.0538,318.00592,-557.77704,314.52142L-552.1953,288.34286"/>
</g>
<g style="fill:rgb(9,79,164); fill-opacity:1.0; stroke-linejoin: miter">
</g>
<g style="fill:rgb(9,79,164); fill-opacity:1.0; stroke-linejoin: miter">
<path d="M-732.5043,593.5848L-732.5043,593.5848L-732.5043,593.58575L-738.0667,591.12366L-323.13098,214.23555C-321.86838,213.08871,-319.94287,213.08286,-318.6733,214.22202L-318.6733,214.22202L-124.24137,388.6831C-123.57547,389.2806,-123.178345,390.1212,-123.139694,391.015C-123.10104,391.90884,-123.42411,392.78058,-124.03595,393.43335L-124.03595,393.43335L-314.7887,596.94495C-316.04492,598.2852,-318.1498,598.35333,-319.49008,597.0971C-320.83035,595.8409,-320.89844,593.736,-319.6422,592.39575L-319.6422,592.39575L-128.88948,388.8841L-128.68407,393.63434L-323.116,219.17328L-318.65833,219.15974L-733.59406,596.04785C-734.5684,596.93286,-735.973,597.16003,-737.17664,596.62726C-738.38025,596.0945,-739.1565,594.90204,-739.1565,593.58575L-739.1565,593.58575L-739.1565,593.5848C-739.1565,591.7478,-737.66736,590.25867,-735.8304,590.25867C-733.9934,590.25867,-732.5043,591.7478,-732.5043,593.5848 Z"/>
</g>
<g style="fill:rgb(9,79,164); fill-opacity:1.0; stroke-linejoin: miter">
<path d="M-732.505,593.97375L-732.505,593.97375L-732.505,593.9728L-738.0776,596.4118L-324.70602,975.01483C-323.44818,976.1669,-321.5227,976.1807,-320.24844,975.0468L-320.24844,975.0468L-125.09578,801.39233C-124.427414,800.7976,-124.02681,799.9587,-123.98446,799.065C-123.942116,798.1713,-124.261566,797.2982,-124.87069,796.64294L-124.87069,796.64294L-314.7791,592.34326C-316.0298,590.9978,-318.1344,590.92096,-319.47983,592.17163C-320.82532,593.4223,-320.9021,595.52686,-319.65143,596.8723L-319.65143,596.8723L-129.74301,801.1721L-129.51794,796.4227L-324.6706,970.0772L-320.213,970.1092L-733.5846,591.5062C-734.5553,590.6172,-735.959,590.38416,-737.16473,590.912C-738.37054,591.43976,-739.15173,592.629,-739.15717,593.94525L-739.15717,593.94525L-739.15717,593.9462C-739.1648,595.7832,-737.6818,597.2785,-735.8449,597.2861C-734.00793,597.2937,-732.51263,595.8107,-732.505,593.97375 Z"/>
</g>
<g style="fill:rgb(9,79,164); fill-opacity:1.0; stroke-linejoin: miter">
<path d="M-748.13885,591.2751L-748.13885,591.2751L-740.3797,598.88947L-740.3797,598.88947L-485.0675,849.4379C-484.08118,850.4059,-483.7961,851.8828,-484.35138,853.1483L-484.35138,853.1483L-542.0777,984.7087C-542.4478,985.55225,-543.15125,986.2045,-544.0203,986.5101C-544.8894,986.8156,-545.84625,986.7471,-546.66284,986.32074L-546.66284,986.32074L-750.64764,879.8278C-751.77026,879.24176,-752.46265,878.0691,-752.4336,876.80304L-752.4336,876.80304L-746.1119,601.28296C-746.06976,599.4465,-744.5468,597.9919,-742.7103,598.034C-740.87384,598.0761,-739.41925,599.59906,-739.46136,601.43555L-739.46136,601.43555L-745.7831,876.9556L-747.56903,873.93085L-543.5842,980.42377L-548.1694,982.0358L-490.443,850.47546L-489.72687,854.18585L-745.039,603.6374L-745.039,603.6374L-752.79816,596.023C-754.10925,594.7364,-754.1291,592.6305,-752.84247,591.3194C-751.55585,590.0083,-749.44995,589.98846,-748.13885,591.2751 Z"/>
</g>
<g style="fill:rgb(9,79,164); fill-opacity:1.0; stroke-linejoin: miter">
<path d="M-748.14905,596.2188L-748.14905,596.2188L-740.35846,588.63666L-740.35846,588.63666L-484.01108,339.1474C-483.02075,338.1836,-482.72958,336.70782,-483.2796,335.44006L-483.2796,335.44006L-540.4607,203.64178C-540.82733,202.79675,-541.5281,202.14154,-542.3958,201.8324C-543.2637,201.52325,-544.22076,201.58783,-545.0391,202.0108L-545.0391,202.0108L-749.4631,307.6582C-750.58813,308.23962,-751.28534,309.40936,-751.26154,310.67554L-751.26154,310.67554L-746.0806,586.2195C-746.04614,588.0561,-744.52924,589.51697,-742.6926,589.4825C-740.85596,589.44794,-739.3951,587.931,-739.42957,586.0944L-739.42957,586.0944L-744.6105,310.55048L-746.40894,313.56787L-541.985,207.92041L-546.5634,206.28937L-489.38223,338.08765L-488.65073,334.38025L-744.99805,583.8695L-744.99805,583.8695L-752.78864,591.45166C-754.1051,592.73285,-754.1336,594.8386,-752.8524,596.155C-751.5712,597.47144,-749.4655,597.5,-748.14905,596.2188 Z"/>
</g>
<g style="fill:rgb(9,79,164); fill-opacity:1.0; stroke-linejoin: miter">
<path d="M-743.6962,723.30597L-743.6962,723.30597L-743.6962,723.30695C-743.6962,724.6563,-744.5114,725.87195,-745.75977,726.38416C-747.0081,726.89636,-748.4422,726.60364,-749.38995,725.6431L-749.38995,725.6431L-877.5929,595.7141C-878.8831,594.4065,-878.8691,592.30054,-877.56146,591.0103C-876.25385,589.7201,-874.1479,589.73413,-872.85767,591.04175L-872.85767,591.04175L-744.6547,720.97076L-750.34845,723.30695L-750.34845,723.30597C-750.34845,721.469,-748.8593,719.97986,-747.02234,719.97986C-745.18536,719.97986,-743.6962,721.469,-743.6962,723.30597 Z"/>
</g>
<g style="fill:rgb(9,79,164); fill-opacity:1.0; stroke-linejoin: miter">
<path d="M-743.1598,464.2074L-743.1598,464.2074L-743.1598,464.20642C-743.1542,462.85706,-743.96436,461.638,-745.2106,461.12067C-746.4568,460.60327,-747.8921,460.89008,-748.8438,461.84662L-748.8438,461.84662L-877.5837,591.2437C-878.8792,592.546,-878.8739,594.652,-877.5717,595.9476C-876.2694,597.2432,-874.1634,597.2379,-872.8678,595.9356L-872.8678,595.9356L-744.1279,466.53857L-749.81195,464.17883L-749.81195,464.1798C-749.8196,466.01672,-748.3367,467.51202,-746.4997,467.51965C-744.6627,467.52728,-743.1674,466.0443,-743.1598,464.2074 Z"/>
</g>
</g>
<g id="layer2" opacity="0.0">
<g style="fill:rgb(254,118,55); fill-opacity:1.0; stroke-linejoin: miter">
<path d="M-316.24762,619.3649L-318.77985,105.197815Q-315.2521,77.78549,-312.099,62.161133L-303.55927,50.27545Q-294.57425,45.839718,-272.3518,42.304382L167.90479,47.05981L189.19568,50.705444Q196.88354,54.900696,202.96155,74.24804L198.27795,282.07623L191.83984,327.82004Q177.03036,354.53534,160.04626,373.17813L-60.27893,617.0389L-316.24762,619.3649"/>
</g>
<g style="fill:rgb(254,118,55); fill-opacity:1.0; stroke-linejoin: miter">
<path d="M-316.22174,606.83856L-320.88278,1120.9907Q-317.46857,1148.4175,-314.38016,1164.0548L-305.8897,1175.9757Q-296.92316,1180.4486,-274.7155,1184.0759L165.55699,1181.1433L186.86281,1177.5859Q194.56798,1173.4225,200.72604,1154.1005L196.90297,946.2547L190.65431,900.4846Q175.95557,873.70825,159.0488,854.9953L-60.264843,610.2244L-316.22174,606.83856"/>
</g>
<g style="fill:rgb(254,118,55); fill-opacity:1.0; stroke-linejoin: miter">
<path d="M114.04761,628.966L100.387634,609.9616L640.1042,63.96338L664.49255,48.312378L683.55695,46.082462L1124.7888,50.17816Q1149.3586,50.428627,1154.8884,57.23535Q1157.2673,63.88822,1149.4724,71.77557L617.9683,623.6731L114.04761,628.966"/>
</g>
<g style="fill:rgb(254,118,55); fill-opacity:1.0; stroke-linejoin: miter">
<path d="M114.10963,599.01917L100.37107,617.96686L637.8222,1166.1952L662.14557,1181.947L681.20056,1184.2559L1122.4456,1181.9873Q1147.0164,1181.8385,1152.5741,1175.0548Q1154.9806,1168.4119,1147.2185,1160.4922L618.00415,606.3987L114.10963,599.01917"/>
</g>
<g style="fill:rgb(255,195,91); fill-opacity:1.0; stroke-linejoin: miter">
<path d="M-308.66644,1174.0566L-279.29028,1158.1672Q-288.0535,1160.8843,-291.2208,1150.6108Q-292.35254,1147.7533,-293.44604,1138.0217Q-294.26205,1131.9489,-294.78036,1110.0381Q-294.98636,1100.5574,-294.98505,1075.7437L-287.48953,612.7292L-315.76315,608.08246L-320.34305,1110.9976L-316.6221,1156.9716L-308.66644,1174.0566"/>
</g>
<g style="fill:rgb(255,195,91); fill-opacity:1.0; stroke-linejoin: miter">
<path d="M-306.34384,52.182983L-277.03372,68.19385Q-285.7856,65.44055,-288.99542,75.700806Q-290.13898,78.55371,-291.27277,88.28064Q-292.11392,94.3501,-292.72296,116.25842Q-292.9682,125.73816,-293.06964,150.55176L-287.49133,613.59326L-315.78394,618.1229L-318.28146,115.193115L-314.37018,69.23486L-306.34384,52.182983"/>
</g>
<g style="fill:rgb(255,195,91); fill-opacity:1.0; stroke-linejoin: miter">
<path d="M1130.2919,1148.8524L1151.0714,1171.7906L1144.5809,1180.4288L1127.3759,1181.5748L1109.7676,1179.5695L826.1594,1181.8585L682.8909,1185.5137L658.22595,1180.9811L643.43494,1172.8063L99.12086,610.76013Q113.79255,601.48755,117.71058,593.4972L592.41016,928.7494Q637.72546,960.98846,680.66113,983.79333L756.6553,1019.7279L1130.2919,1148.8524"/>
</g>
<g style="fill:rgb(255,195,91); fill-opacity:1.0; stroke-linejoin: miter">
<path d="M1132.4978,83.34509L1153.3722,60.493042L1146.9175,51.828003L1129.7173,50.61084L1112.101,52.543335L828.5047,49.079956L685.25256,44.831543L660.569,49.262085L645.74426,57.37549L99.10763,617.1631Q113.74081,626.4964,117.62571,634.5028L593.70935,301.21906Q639.1578,269.16785,682.1875,246.54095L758.3298,210.92133L1132.4978,83.34509"/>
</g>
<g style="fill:rgb(255,195,91); fill-opacity:1.0; stroke-linejoin: miter">
</g>
<g style="fill:rgb(255,195,91); fill-opacity:1.0; stroke-linejoin: miter">
</g>
<g style="fill:rgb(255,195,91); fill-opacity:1.0; stroke-linejoin: miter">
<path d="M191.80084,1173.4539L198.73633,1137.5128Q50.191345,1060.5985,1.1482544,1025.8157Q-56.08336,986.3855,-101.655594,934.83325Q-169.50116,843.29504,-196.38281,767.2447Q-215.6489,713.86285,-213.82257,606.36145L-299.06357,601.03595L-311.2254,1076.3237L-309.86823,1148.513L-311.9144,1170.9116L-291.87228,1182.7488L-263.05908,1185.603L191.80084,1173.4539"/>
</g>
<g style="fill:rgb(255,195,91); fill-opacity:1.0; stroke-linejoin: miter">
<path d="M194.11668,54.858032L200.90329,90.82739Q52.04111,167.12598,2.8544188,201.70544Q-54.53997,240.89832,-100.325264,292.2614Q-168.54927,383.51794,-195.74559,459.45636Q-215.23254,512.75793,-213.85135,620.266L-299.11365,625.2385L-309.30743,149.90442L-307.65137,77.721436L-309.6048,55.314453L-289.51382,43.560425L-260.6891,40.82544L194.11668,54.858032"/>
</g>
<g style="fill:rgb(255,225,171); fill-opacity:1.0; stroke-linejoin: miter">
<path d="M194.14142,1162.7561L177.46786,1157.3651Q67.98755,1123.7438,4.225464,1084.9031Q-53.30902,1051.4867,-144.7381,954.0717Q-222.18402,844.05664,-238.72821,786.1625Q-259.23007,728.7835,-255.87637,608.252L-318.08243,606.09576L-320.81427,1099.431L-318.47385,1149.0115L-314.7457,1166.0684Q-305.25778,1176.5566,-284.94916,1182.36L128.48544,1180.6384L189.047,1176.9019L194.14142,1162.7561"/>
</g>
<g style="fill:rgb(255,225,171); fill-opacity:1.0; stroke-linejoin: miter">
<path d="M196.4131,65.56543L179.71736,70.88721Q70.098755,104.05493,6.176382,142.63123Q-51.495987,175.8092,-143.32767,272.84467Q-221.22849,382.53815,-238.01228,440.36334Q-258.75156,497.65686,-255.89699,618.20123L-318.11145,620.09985L-318.8004,126.75745L-316.2547,77.187256L-312.45596,60.145874Q-302.9247,49.69702,-282.5922,43.977783L130.83173,47.411255L191.37729,51.39868L196.4131,65.56543"/>
</g>
<g style="fill:rgb(255,225,171); fill-opacity:1.0; stroke-linejoin: miter">
<path d="M124.27197,608.8452L572.8052,965.9425Q658.17175,1028.9293,755.21533,1059.0962L785.09515,1069.2537L1149.987,1164.613Q1157.9197,1178.8213,1148.2388,1178.9028L1065.4392,1182.7144L674.08075,1184.0938L649.77606,1175.2922L101.17438,610.3561L124.27197,608.8452"/>
</g>
<g style="fill:rgb(255,225,171); fill-opacity:1.0; stroke-linejoin: miter">
<path d="M124.25059,619.18243L574.2586,263.94543Q659.88525,201.31262,757.053,171.54773L786.97455,161.51416L1152.2583,67.666504Q1160.2495,53.49121,1150.5691,53.36963L1067.7861,49.21521L676.43665,46.215332L652.0957,54.91626L101.15945,617.5759L124.25059,619.18243"/>
</g>
<g style="fill:rgb(255,255,255); fill-opacity:1.0; stroke-linejoin: miter">
<path d="M-59.55594,1179.9116L-72.06909,1178.6802Q-172.62517,1169.4062,-210.48923,1148.9761Q-230.14299,1139.9517,-246.19592,1122.6726Q-265.32205,1097.9607,-267.88202,1088.9556Q-280.79288,1061.6995,-288.92566,1016.0929Q-291.64188,1007.4651,-298.4036,936.01294Q-306.60208,830.7156,-306.6992,612.1614L-317.07266,612.97534L-319.51736,1100.7228L-318.9763,1140.8396L-313.68488,1161.6295L-301.56168,1178.2192L-255.42078,1184.7418L-59.55594,1179.9116"/>
</g>
<g style="fill:rgb(255,255,255); fill-opacity:1.0; stroke-linejoin: miter">
<path d="M-57.211216,47.359497L-69.729355,48.539062Q-170.32298,57.396606,-208.2713,77.6698Q-227.96227,86.61279,-244.08661,103.825195Q-263.3149,128.45764,-265.9121,137.45227Q-278.93573,164.65466,-287.25726,210.22711Q-290.00922,218.84357,-297.0667,290.26715Q-305.7011,395.52966,-306.70316,614.08154L-317.07315,613.2246L-317.49832,125.47119L-316.79114,85.357056L-311.41367,64.58923L-299.2219,48.049805L-253.05438,41.71826L-57.211216,47.359497"/>
</g>
<g style="fill:rgb(255,255,255); fill-opacity:1.0; stroke-linejoin: miter">
<path d="M103.03306,615.62775L112.879135,614.1357Q484.99554,261.01477,550.6059,201.25883Q622.38043,134.36736,670.9713,107.60129Q736.0322,74.98612,804.2378,70.80086L845.04156,67.15216L1148.5798,54.57855L1129.5615,50.45807L677.9426,44.32965Q661.02356,48.76675,644.6204,59.32971L103.03306,615.62775"/>
</g>
<g style="fill:rgb(255,255,255); fill-opacity:1.0; stroke-linejoin: miter">
<path d="M103.039925,612.3117L112.879745,613.8445Q483.531,968.50305,548.8934,1028.53Q620.3904,1095.7181,668.87,1122.6852Q733.79535,1155.5695,801.98303,1160.037L842.7713,1163.8546L1146.2549,1177.6848L1127.2197,1181.7266L675.5793,1185.9851Q658.6788,1181.478,642.3195,1170.8472L103.039925,612.3117"/>
</g>
<g style="fill:rgb(255,255,255); fill-opacity:1.0; stroke-linejoin: miter">
</g>
<g style="fill:rgb(255,255,255); fill-opacity:1.0; stroke-linejoin: miter">
</g>
</g>
<g id="layer3">
<g style="fill:rgb(61,48,57); fill-opacity:1.0; stroke-linejoin: miter">
<path d="M-231.98947,1003.4459L-314.2376,1157.344L-300.68494,1176.4827L-265.484,1183.6555L-151.49954,1183.4744L-231.98947,1003.4459"/>
</g>
<g style="fill:rgb(100,52,64); fill-opacity:1.0; stroke-linejoin: miter">
<path d="M-318.8054,1006.06836L-318.8054,1006.06885L-231.64233,1003.1582Q-273.51645,1082.5146,-315.39056,1161.8711L-318.8054,1006.06836"/>
</g>
<g style="fill:rgb(68,57,63); fill-opacity:1.0; stroke-linejoin: miter">
<path d="M-232.23682,1003.9163L-232.23682,1003.9168L-163.85397,1158.165Q-134.43068,1111.0967,-105.007385,1064.0283L-232.23682,1003.9163"/>
</g>
<g style="fill:rgb(60,43,61); fill-opacity:1.0; stroke-linejoin: miter">
<path d="M-163.89542,1158.1431L-158.36922,1169.3262L-152.84302,1180.5095Q-69.07676,1181.8083,14.689499,1183.1073Q37.306732,1164.1156,59.923965,1145.1238Q-23.033539,1104.4541,-105.99104,1063.7843L-163.89542,1158.1431"/>
</g>
<g style="fill:rgb(54,49,71); fill-opacity:1.0; stroke-linejoin: miter">
<path d="M142.487,1181.081L142.487,1181.0815L56.920197,1144.8767Q34.60545,1162.2445,12.290703,1179.6123L142.487,1181.081"/>
</g>
<g style="fill:rgb(90,87,115); fill-opacity:1.0; stroke-linejoin: miter">
<path d="M180.1123,1178.3025L180.1123,1178.303L95.93428,1107.5785Q77.06742,1126.4728,58.200554,1145.3671Q98.482925,1162.5322,138.76529,1179.6974L180.1123,1178.3025"/>
</g>
<g style="fill:rgb(85,75,86); fill-opacity:1.0; stroke-linejoin: miter">
<path d="M58.422142,1145.5083L58.422142,1145.5088L-106.375145,1064.0856Q-4.518799,1086.0302,97.33755,1107.9746L58.422142,1145.5083"/>
</g>
<g style="fill:rgb(91,73,74); fill-opacity:1.0; stroke-linejoin: miter">
<path d="M197.37509,1152.6769L197.37509,1152.6774L147.81961,1082.7565Q118.20511,1094.4016,88.590614,1106.0469Q133.99602,1141.9639,179.40143,1177.8809L197.37509,1152.6769"/>
</g>
<g style="fill:rgb(97,61,67); fill-opacity:1.0; stroke-linejoin: miter">
<path d="M198.03613,1154.0583L172.80579,1118.49L147.57542,1082.9215Q149.14046,1080.9779,150.70547,1079.0344Q173.85342,1069.9717,197.00137,1060.9089L198.03613,1154.0583"/>
</g>
<g style="fill:rgb(69,65,83); fill-opacity:1.0; stroke-linejoin: miter">
<path d="M196.85727,1062.3213L148.06079,1083.2289L84.14731,927.75464L61.21762,885.6119L34.4545,820.58856L161.63187,859.519L177.97879,877.00714L189.0362,900.4183L194.299,919.58246L196.42168,984.146L196.85727,1062.3213"/>
</g>
<g style="fill:rgb(236,177,104); fill-opacity:1.0; stroke-linejoin: miter">
<path d="M112.95911,804.174L73.77599,812.5328L34.59288,820.89154Q98.677826,840.8081,162.76277,860.72473L112.95911,804.174"/>
</g>
<g style="fill:rgb(100,100,100); fill-opacity:1.0; stroke-linejoin: miter">
<path d="M90.857735,1107.1592L34.490585,820.70514L59.26097,876.91974L81.62346,917.6505L148.6345,1083.5836L90.857735,1107.1592"/>
</g>
<g style="fill:rgb(208,160,100); fill-opacity:1.0; stroke-linejoin: miter">
<path d="M111.771194,804.87933L111.771194,804.8798L34.92653,820.91064Q45.9579,782.2534,56.989273,743.5961L111.771194,804.87933"/>
</g>
<g style="fill:rgb(91,73,74); fill-opacity:1.0; stroke-linejoin: miter">
<path d="M174.84172,1168.2344L174.84172,1168.2354L183.11804,1176.8853L193.19019,1174.035Q196.73988,1163.8217,197.63441,1160.4966Q198.68604,1156.8536,199.0286,1153.1311L174.84172,1168.2344"/>
</g>
<g style="fill:rgb(123,107,108); fill-opacity:1.0; stroke-linejoin: miter">
<path d="M91.505554,1107.7803L91.505554,1107.7808L35.10269,822.38715L32.881073,820.806Q-36.444427,943.2184,-105.76993,1065.6307L91.505554,1107.7803"/>
</g>
<g style="fill:rgb(115,59,66); fill-opacity:1.0; stroke-linejoin: miter">
<path d="M-231.79553,1004.58514L-231.79553,1004.58563L-231.5629,994.99304Q-274.46637,975.3857,-317.36987,955.7783Q-318.1983,981.5801,-319.02676,1007.38184L-231.79553,1004.58514"/>
</g>
<g style="fill:rgb(102,83,76); fill-opacity:1.0; stroke-linejoin: miter">
<path d="M-105.73065,1065.645L-103.1479,1063.1464L-207.38205,966.9166L-230.69345,969.7864L-281.45187,925.9815L-306.1623,961.60443L-232.33208,999.7065L-232.12933,1004.62683L-105.73065,1065.645"/>
</g>
<g style="fill:rgb(101,94,87); fill-opacity:1.0; stroke-linejoin: miter">
<path d="M-103.6128,1061.957L-103.6128,1061.958L-105.764824,1065.5967L-104.26653,1065.4293L-102.82866,1063.94L-102.54135,1063.079L-103.6128,1061.957"/>
</g>
<g style="fill:rgb(100,57,53); fill-opacity:1.0; stroke-linejoin: miter">
<path d="M-104.100815,1062.8569L-104.100815,1062.8573L34.767853,820.98474Q-86.76777,894.1609,-208.30339,967.3371L-104.100815,1062.8569"/>
</g>
<g style="fill:rgb(82,79,106); fill-opacity:1.0; stroke-linejoin: miter">
<path d="M60.303677,1145.3046L60.303677,1145.305L58.303753,1145.5253Q78.73234,1154.1688,99.16092,1162.8125L60.303677,1145.3046"/>
</g>
<g style="fill:rgb(82,79,106); fill-opacity:1.0; stroke-linejoin: miter">
<path d="M61.758553,1144.8705L61.758553,1144.871L57.074043,1144.8724Q95.608215,1161.3273,134.14238,1177.782L61.758553,1144.8705"/>
</g>
<g style="fill:rgb(131,95,77); fill-opacity:1.0; stroke-linejoin: miter">
<path d="M-318.1376,956.2153L-318.1376,956.21576L-304.8763,961.93365Q-292.84338,945.07654,-280.8105,928.2195Q-298.74524,917.949,-316.68002,907.6785L-318.1376,956.2153"/>
</g>
<g style="fill:rgb(154,88,56); fill-opacity:1.0; stroke-linejoin: miter">
<path d="M-296.67285,919.21765L-299.94623,910.8142L-227.47058,769.78094L-251.73853,781.32513L-316.99728,839.8272L-316.909,909.76196L-296.67285,919.21765"/>
</g>
<g style="fill:rgb(128,71,60); fill-opacity:1.0; stroke-linejoin: miter">
<path d="M-280.7017,928.57635L-281.4513,925.82666L-231.74776,816.8813L-229.29224,771.5021L-300.16537,910.6024L-296.87262,919.267L-280.7017,928.57635"/>
</g>
<g style="fill:rgb(136,74,66); fill-opacity:1.0; stroke-linejoin: miter">
<path d="M-281.19595,928.339L-281.19595,928.3395L-230.407,970.7699Q-231.26915,893.541,-232.13129,816.31213Q-256.88052,871.0027,-281.62973,925.69324L-281.19595,928.339"/>
</g>
<g style="fill:rgb(101,94,87); fill-opacity:1.0; stroke-linejoin: miter">
<path d="M90.33768,1107.0807L91.39151,1108.3391L91.81204,1106.7908L91.30203,1106.8472L35.13095,820.6592L32.872345,820.8279L31.67456,822.79736L33.10995,822.65405L32.949738,824.09686L90.33768,1107.0807"/>
</g>
<g style="fill:rgb(122,56,58); fill-opacity:1.0; stroke-linejoin: miter">
<path d="M-231.04126,970.46063L-207.21939,968.0026L34.314438,821.45074L-223.13023,769.6534L-229.46245,770.5065L-232.75822,817.2151L-231.04126,970.46063"/>
</g>
<g style="fill:rgb(122,56,58); fill-opacity:1.0; stroke-linejoin: miter">
<path d="M-230.98618,969.91064L-230.98618,969.91113L-231.01097,970.4533Q-230.72647,970.61475,-230.44196,970.7762Q-230.22716,970.49506,-230.01234,970.21387L-230.98618,969.91064"/>
</g>
<g style="fill:rgb(162,121,72); fill-opacity:1.0; stroke-linejoin: miter">
<path d="M35.341354,821.6256L35.496323,818.2013L-153.54665,718.4309L-229.53358,770.7637L32.384293,822.857L35.341354,821.6256"/>
</g>
<g style="fill:rgb(236,177,104); fill-opacity:1.0; stroke-linejoin: miter">
<path d="M35.216675,821.54126L35.738037,818.31036L49.545166,772.5355L33.124756,771.275L-41.60853,633.24603L-155.39825,719.77295L35.216675,821.54126"/>
</g>
<g style="fill:rgb(236,177,104); fill-opacity:1.0; stroke-linejoin: miter">
<path d="M57.96646,742.9147L49.23526,773.1921L33.286575,771.812L-36.248245,643.4607L-18.558441,657.89813L57.96646,742.9147"/>
</g>
<g style="fill:rgb(211,139,85); fill-opacity:1.0; stroke-linejoin: miter">
<path d="M-317.5877,840.76074L-317.5877,840.7612L-248.07372,782.04584Q-238.35052,776.6022,-228.62733,771.15857Q-272.34277,712.31696,-316.0582,653.47534L-317.5877,840.76074"/>
</g>
<g style="fill:rgb(169,93,69); fill-opacity:1.0; stroke-linejoin: miter">
<path d="M-230.03735,771.9518L-150.55557,717.4066L-258.2205,491.49756L-315.6325,545.3272L-315.34802,669.8777L-230.03735,771.9518"/>
</g>
<g style="fill:rgb(225,166,93); fill-opacity:1.0; stroke-linejoin: miter">
<path d="M-42.00418,633.3828L-42.00418,633.3833L-154.61981,720.22095Q-206.59456,606.0484,-258.5693,491.87582Q-223.8771,506.7559,-189.1849,521.6359L-42.00418,633.3828"/>
</g>
<g style="fill:rgb(154,110,72); fill-opacity:1.0; stroke-linejoin: miter">
<path d="M-28.71251,579.4883L-203.52838,515.1409L-48.97116,629.1288L-58.9236,613.4956L-28.71251,579.4883"/>
</g>
<g style="fill:rgb(203,114,74); fill-opacity:1.0; stroke-linejoin: miter">
<path d="M-33.136,580.54016L-61.757187,411.55594L-258.30145,491.5799L-258.4716,492.17932L-201.66336,516.9475L-33.136,580.54016"/>
</g>
<g style="fill:rgb(163,86,58); fill-opacity:1.0; stroke-linejoin: miter">
<path d="M-314.74588,545.75024L-314.74588,545.75073Q-286.45178,518.9829,-258.15765,492.2141Q-286.59515,466.60223,-315.03262,440.99036L-314.74588,545.75024"/>
</g>
<g style="fill:rgb(212,145,89); fill-opacity:1.0; stroke-linejoin: miter">
<path d="M-33.572342,580.3771L-47.886497,496.0396L-62.200653,411.7021Q-59.04013,410.9275,-55.87961,410.15286Q-1.3652916,451.1005,53.149025,492.04813L-33.572342,580.3771"/>
</g>
<g style="fill:rgb(128,71,60); fill-opacity:1.0; stroke-linejoin: miter">
<path d="M-297.51907,906.15845L-300.8312,910.95764L-304.1433,915.7568Q-299.9992,917.76544,-295.85507,919.7741L-297.51907,906.15845"/>
</g>
<g style="fill:rgb(212,145,89); fill-opacity:1.0; stroke-linejoin: miter">
<path d="M-56.2421,411.09036L-56.2421,411.0914L-47.827908,407.7013L89.73961,408.20187L102.45412,414.2504L86.58005,451.08267L50.192547,494.03992L-56.2421,411.09036"/>
</g>
<g style="fill:rgb(134,94,61); fill-opacity:1.0; stroke-linejoin: miter">
<path d="M111.13164,423.54163L111.13164,423.54214L101.501205,414.07672Q93.26618,432.91742,85.03116,451.75815Q90.38502,449.0113,95.73887,446.26447L111.13164,423.54163"/>
</g>
<g style="fill:rgb(170,89,62); fill-opacity:1.0; stroke-linejoin: miter">
<path d="M-258.3433,492.0816L-258.3433,492.0821L-215.9151,315.19836Q-266.26538,293.15613,-316.61566,271.1139Q-315.4625,358.0349,-314.3093,444.95593L-258.3433,492.0816"/>
</g>
<g style="fill:rgb(186,109,55); fill-opacity:1.0; stroke-linejoin: miter">
<path d="M-216.29523,315.63818L-178.26062,172.30319L-266.33505,133.89122L-319.03006,151.45914L-317.99487,271.43375L-216.29523,315.63818"/>
</g>
<g style="fill:rgb(165,117,68); fill-opacity:1.0; stroke-linejoin: miter">
<path d="M-318.08762,152.64172L-318.08762,152.64273L-266.7923,135.05957L-222.30719,91.04242L-303.2832,50.267944L-313.8046,63.587246L-316.5272,81.83368L-318.71387,118.40423L-318.08762,152.64172"/>
</g>
<g style="fill:rgb(144,114,78); fill-opacity:1.0; stroke-linejoin: miter">
<path d="M-301.45175,51.917362L-224.57303,92.20575L-98.56062,44.912403L-233.30649,41.825085L-256.46597,41.509083L-282.89008,42.36L-301.45175,51.917362"/>
</g>
<g style="fill:rgb(238,198,120); fill-opacity:1.0; stroke-linejoin: miter">
<path d="M-205.5678,274.37897L-205.5678,274.3795L-259.09042,493.01147Q-153.0752,450.58298,-47.059967,408.15448L-205.5678,274.37897"/>
</g>
<g style="fill:rgb(255,219,147); fill-opacity:1.0; stroke-linejoin: miter">
<path d="M92.55786,409.565L-24.439987,319.31903L-141.43784,229.07303Q-170.48642,254.657,-199.535,280.24097Q-123.49178,344.3128,-47.448563,408.38464L92.55786,409.565"/>
</g>
<g style="fill:rgb(152,137,104); fill-opacity:1.0; stroke-linejoin: miter">
<path d="M101.08696,413.71515L123.24524,398.31662L179.82297,349.4459L146.07938,390.45572L123.10365,413.21204L115.18452,422.5166L111.67391,424.67578L101.08696,413.71515"/>
</g>
<g style="fill:rgb(227,180,114); fill-opacity:1.0; stroke-linejoin: miter">
<path d="M-205.93427,274.25757L-205.93427,274.25806Q-202.42416,276.96896,-198.91406,279.67883Q-167.238,252.29346,-135.56198,224.90805L-178.26495,171.52376L-205.93427,274.25757"/>
</g>
<g style="fill:rgb(229,187,105); fill-opacity:1.0; stroke-linejoin: miter">
<path d="M-204.8278,276.2479L-205.84515,273.97235L-216.68918,315.3746L-246.81229,440.37048L-245.49673,443.22485L-213.36595,314.6068L-197.56467,279.7619L-201.74017,276.55148L-204.8278,276.2479"/>
</g>
<g style="fill:rgb(200,140,77); fill-opacity:1.0; stroke-linejoin: miter">
<path d="M-224.34677,92.09596L-224.34677,92.09646L-266.80774,134.4251L-178.20131,172.35577L-224.34677,92.09596"/>
</g>
<g style="fill:rgb(203,165,100); fill-opacity:1.0; stroke-linejoin: miter">
<path d="M-224.80617,92.025246L-179.32674,172.30356L3.2274628,111.9824L-90.961044,45.224945L-103.03685,45.61667L-224.80617,92.025246"/>
</g>
<g style="fill:rgb(245,226,150); fill-opacity:1.0; stroke-linejoin: miter">
<path d="M-180.21964,171.40005L-158.21695,198.23502L-136.21426,225.06996L3.3164673,111.41483L-180.21964,171.40005"/>
</g>
<g style="fill:rgb(242,192,125); fill-opacity:1.0; stroke-linejoin: miter">
<path d="M91.66246,409.3444L100.959305,413.89822L105.6882,410.69748L88.02257,186.87683L2.6664734,111.36402L-142.73048,229.93924L91.66246,409.3444"/>
</g>
<g style="fill:rgb(189,172,118); fill-opacity:1.0; stroke-linejoin: miter">
<path d="M87.41216,186.48944L105.362785,411.07025L171.43198,360.78345L189.34708,334.69495L194.69052,310.0227Q195.96239,300.11847,197.54935,207.03621L87.41216,186.48944"/>
</g>
<g style="fill:rgb(189,172,118); fill-opacity:1.0; stroke-linejoin: miter">
<path d="M105.719345,409.98386L105.719345,409.98438L124.71201,399.73862Q140.33882,385.98242,155.96562,372.2262Q140.41144,377.3235,124.857254,382.42078L105.719345,409.98386"/>
</g>
<g style="fill:rgb(219,190,123); fill-opacity:1.0; stroke-linejoin: miter">
<path d="M197.11452,208.53232L197.11452,208.53282L108.42575,163.67026Q97.80741,175.28957,87.18907,186.90887L197.11452,208.53232"/>
</g>
<g style="fill:rgb(255,220,128); fill-opacity:1.0; stroke-linejoin: miter">
<path d="M196.72147,208.56926L152.31093,186.25266L107.900406,163.93607Q126.8852,141.2416,145.87,118.547134L177.36786,158.5329Q187.83678,171.11252,198.3057,183.69217L196.72147,208.56926"/>
</g>
<g style="fill:rgb(255,231,160); fill-opacity:1.0; stroke-linejoin: miter">
<path d="M198.8122,184.59044L145.29831,119.25161L191.9116,52.853683L199.91135,60.332825L199.64407,75.444756L202.11359,118.2786L198.63754,150.13167L198.8122,184.59044"/>
</g>
<g style="fill:rgb(255,220,128); fill-opacity:1.0; stroke-linejoin: miter">
<path d="M146.00687,119.43467L146.00687,119.435165L2.731644,111.91288Q45.370853,149.79393,88.01006,187.67497L146.00687,119.43467"/>
</g>
<g style="fill:rgb(245,226,148); fill-opacity:1.0; stroke-linejoin: miter">
<path d="M192.3748,53.691727L192.3748,53.692226L145.42778,119.7348Q74.08932,115.87846,2.7508545,112.022125Q64.362495,80.08139,125.97414,48.140656L192.3748,53.691727"/>
</g>
<g style="fill:rgb(241,192,95); fill-opacity:1.0; stroke-linejoin: miter">
</g>
<g style="fill:rgb(170,151,103); fill-opacity:1.0; stroke-linejoin: miter">
<path d="M123.88811,50.516357L123.88811,50.516857L2.7974777,112.035034Q-46.14703,77.71484,-95.09155,43.394653L123.88811,50.516357"/>
</g>
<g style="fill:rgb(255,240,169); fill-opacity:1.0; stroke-linejoin: miter">
<path d="M994.38965,231.73816L795.56287,181.76474L896.21893,50.860874L1111.9116,51.89218L1144.8987,52.923923L1155.8987,59.6485L1146.6437,72.08835L994.38965,231.73816"/>
</g>
<g style="fill:rgb(245,226,150); fill-opacity:1.0; stroke-linejoin: miter">
<path d="M992.63586,230.45016L992.63586,230.45068L796.4191,181.33527Q837.80286,265.32794,879.1865,349.3206L992.63586,230.45016"/>
</g>
<g style="fill:rgb(245,226,148); fill-opacity:1.0; stroke-linejoin: miter">
<path d="M652.95166,52.351223L652.95166,52.351727L796.67096,181.7396Q847.5973,115.7805,898.5236,49.82141L652.95166,52.351223"/>
</g>
<g style="fill:rgb(242,203,126); fill-opacity:1.0; stroke-linejoin: miter">
<path d="M653.01385,55.49601L630.26013,174.96814L796.9169,182.10957L796.9114,181.50775L654.2811,52.654602L653.01385,55.49601"/>
</g>
<g style="fill:rgb(245,226,148); fill-opacity:1.0; stroke-linejoin: miter">
<path d="M850.5046,48.787735L814.95703,70.22378Q789.30743,72.63825,771.26263,72.939514Q755.7376,73.305565,738.18176,71.225845Q731.58826,70.376434,724.90564,69.10237Q721.60785,68.67284,704.698,64.51779Q687.7497,60.17936,656.74414,49.992226L690.3877,43.168068L721.005,48.406746L737.37177,45.395645L850.5046,48.787735"/>
</g>
<g style="fill:rgb(235,181,109); fill-opacity:1.0; stroke-linejoin: miter">
<path d="M582.60614,351.99545L587.3125,335.97955Q618.6462,230.33746,632.2346,173.93582Q644.89056,122.608734,654.27966,52.833492L632.91174,71.73332L472.30084,235.73317L582.60614,351.99545"/>
</g>
<g style="fill:rgb(250,231,149); fill-opacity:1.0; stroke-linejoin: miter">
<path d="M582.0165,351.57037L582.0165,351.57086Q689.46277,266.83646,796.9091,182.10104Q714.4029,178.49977,631.89667,174.8985L582.0165,351.57037"/>
</g>
<g style="fill:rgb(205,146,88); fill-opacity:1.0; stroke-linejoin: miter">
<path d="M582.6062,351.6651L582.6062,351.6656L351.36478,449.73883Q408.5697,344.07025,465.7746,238.40169Q470.00433,237.17412,474.23404,235.94655L582.6062,351.6651"/>
</g>
<g style="fill:rgb(225,135,83); fill-opacity:1.0; stroke-linejoin: miter">
<path d="M352.45056,448.92096L352.45056,448.92145L255.17416,456.55515Q346.1046,363.78998,437.0351,271.0248Q448.80847,261.06726,460.58185,251.1097L352.45056,448.92096"/>
</g>
<g style="fill:rgb(255,220,128); fill-opacity:1.0; stroke-linejoin: miter">
<path d="M580.8706,351.04993L660.8415,418.04883L856.4261,371.44965L878.8837,346.8534L796.6784,181.1912L580.8706,351.04993"/>
</g>
<g style="fill:rgb(234,196,114); fill-opacity:1.0; stroke-linejoin: miter">
<path d="M741.92944,488.25012L741.92944,488.2506L659.70215,417.11978Q758.6394,392.55518,857.57666,367.99054L741.92944,488.25012"/>
</g>
<g style="fill:rgb(158,115,78); fill-opacity:1.0; stroke-linejoin: miter">
<path d="M493.30994,555.03595L493.30994,555.03644L669.99274,565.30536Q706.6861,527.0749,743.37946,488.84442Q699.45483,451.11902,655.5303,413.39362L493.30994,555.03595"/>
</g>
<g style="fill:rgb(219,182,95); fill-opacity:1.0; stroke-linejoin: miter">
<path d="M656.1191,413.89664L618.827,382.39774L581.535,350.89886Q537.46,452.9842,493.38513,555.06946L656.1191,413.89664"/>
</g>
<g style="fill:rgb(229,185,87); fill-opacity:1.0; stroke-linejoin: miter">
<path d="M494.27594,553.8199L494.27594,553.8204L352.03717,448.5171Q467.36035,399.09055,582.68353,349.664L494.27594,553.8199"/>
</g>
<g style="fill:rgb(91,73,74); fill-opacity:1.0; stroke-linejoin: miter">
<path d="M195.03537,1159.0859L195.03537,1159.0864Q197.57489,1154.5018,200.11443,1149.9164Q174.20111,1116.3606,148.28778,1082.8049Q118.74393,1095.1165,89.20007,1107.4281L195.03537,1159.0859"/>
</g>
<g style="fill:rgb(239,171,60); fill-opacity:1.0; stroke-linejoin: miter">
<path d="M282.93625,584.36707L282.93625,584.36755Q272.4071,518.6429,261.878,452.91724Q307.8297,450.41623,353.78143,447.91522L282.93625,584.36707"/>
</g>
<g style="fill:rgb(238,132,70); fill-opacity:1.0; stroke-linejoin: miter">
<path d="M184.05606,600.02454L184.05606,600.025L283.20074,588.2375Q272.67664,519.04767,262.1526,449.85785L184.05606,600.02454"/>
</g>
<g style="fill:rgb(227,150,82); fill-opacity:1.0; stroke-linejoin: miter">
<path d="M101.00273,616.23737L101.00273,616.23785L185.08998,599.64575Q222.30383,527.7725,259.5177,455.89923Q194.7057,520.15955,129.8937,584.4198L101.00273,616.23737"/>
</g>
<g style="fill:rgb(197,103,65); fill-opacity:1.0; stroke-linejoin: miter">
<path d="M103.53552,615.37445L103.53552,615.3754L184.09375,599.0037L196.13419,598.2872L155.86249,672.0444L103.53552,615.37445"/>
</g>
<g style="fill:rgb(195,87,61); fill-opacity:1.0; stroke-linejoin: miter">
<path d="M155.49509,669.6315L191.77658,604.4729L360.54315,759.53345L385.84967,795.7012L290.9993,808.0405L155.49509,669.6315"/>
</g>
<g style="fill:rgb(172,77,59); fill-opacity:1.0; stroke-linejoin: miter">
<path d="M290.3156,808.36835L290.3156,808.36884L387.16956,795.0986Q353.61737,816.5194,320.0652,837.9402L290.3156,808.36835"/>
</g>
<g style="fill:rgb(172,77,59); fill-opacity:1.0; stroke-linejoin: miter">
<path d="M298.5545,814.12604L298.5545,814.1265L289.0071,807.19867Q336.0355,801.6047,383.06384,796.0107L298.5545,814.12604"/>
</g>
<g style="fill:rgb(169,89,66); fill-opacity:1.0; stroke-linejoin: miter">
<path d="M411.74207,933.6393L411.74207,933.6398L423.6296,905.10925Q404.73593,850.39,385.84222,795.67084Q353.17645,816.2923,320.51068,836.9138L411.74207,933.6393"/>
</g>
<g style="fill:rgb(143,97,63); fill-opacity:1.0; stroke-linejoin: miter">
<path d="M411.5358,933.07117L422.76147,904.8993L504.05475,784.84546L577.8695,992.8607L489.4939,1011.4789L411.5358,933.07117"/>
</g>
<g style="fill:rgb(168,102,68); fill-opacity:1.0; stroke-linejoin: miter">
<path d="M657.7539,1179.8512L657.7539,1179.8516L577.32526,992.2028Q533.3359,1001.6717,489.34644,1011.1405Q542.7467,1067.0046,596.147,1122.8687L657.7539,1179.8512"/>
</g>
<g style="fill:rgb(168,102,68); fill-opacity:1.0; stroke-linejoin: miter">
<path d="M483.011,1006.95166L483.011,1006.95215L493.90262,1019.51324Q535.83167,1006.10754,577.7607,992.7019L483.011,1006.95166"/>
</g>
<g style="fill:rgb(161,90,84); fill-opacity:1.0; stroke-linejoin: miter">
<path d="M654.6422,1177.9612L683.5403,1185.7021L766.96643,1025.9161L576.782,991.96246L647.57983,1173.3817L654.6422,1177.9612"/>
</g>
<g style="fill:rgb(176,112,77); fill-opacity:1.0; stroke-linejoin: miter">
<path d="M683.91394,1183.4799L683.91394,1183.4803L766.85583,1025.93Q832.59546,1104.2874,898.33514,1182.6447L683.91394,1183.4799"/>
</g>
<g style="fill:rgb(255,175,100); fill-opacity:1.0; stroke-linejoin: miter">
<path d="M895.0637,1181.8899L965.60425,1182.1973L1039.9532,1048.8665L1004.2035,1014.99335L766.77246,1025.9541L895.0637,1181.8899"/>
</g>
<g style="fill:rgb(230,169,122); fill-opacity:1.0; stroke-linejoin: miter">
<path d="M963.69055,1183.8425L1038.2688,1050.9689L1145.5989,1160.7993L1153.8423,1173.6594L1150.0493,1178.5863L1136.9364,1182.1532L963.69055,1183.8425"/>
</g>
<g style="fill:rgb(208,150,87); fill-opacity:1.0; stroke-linejoin: miter">
<path d="M1006.1868,1015.71606L1006.1868,1015.71655L766.85175,1025.9846Q815.65704,947.7106,864.46234,869.4366L1006.1868,1015.71606"/>
</g>
<g style="fill:rgb(223,150,81); fill-opacity:1.0; stroke-linejoin: miter">
<path d="M850.89667,853.492L850.89667,853.4925L713.66064,822.1796Q740.18774,924.2132,766.7148,1026.2468Q816.31305,946.7724,865.91125,867.29803L850.89667,853.492"/>
</g>
<g style="fill:rgb(178,125,83); fill-opacity:1.0; stroke-linejoin: miter">
<path d="M766.6614,1025.7634L766.6614,1025.7639L504.44308,784.6781Q540.95917,888.4908,577.4752,992.3034L766.6614,1025.7634"/>
</g>
<g style="fill:rgb(227,164,87); fill-opacity:1.0; stroke-linejoin: miter">
<path d="M847.5304,853.0889L847.5304,853.0894L713.784,823.0817Q719.93256,774.2095,726.08105,725.3372L847.5304,853.0889"/>
</g>
<g style="fill:rgb(235,168,94); fill-opacity:1.0; stroke-linejoin: miter">
<path d="M766.81726,1026.0077L766.81726,1026.0082L714.6111,818.973Q609.2673,801.8701,503.92343,784.7672L766.81726,1026.0077"/>
</g>
<g style="fill:rgb(178,125,83); fill-opacity:1.0; stroke-linejoin: miter">
<path d="M507.6479,788.6111L504.2103,784.3377L503.71014,784.5503L561.1636,947.6781L566.1537,952.33105L507.6479,788.6111"/>
</g>
<g style="fill:rgb(214,157,91); fill-opacity:1.0; stroke-linejoin: miter">
<path d="M714.75684,820.2535L728.33984,726.23456L623.32776,616.8833L503.78683,785.1553L587.1188,802.3192L612.1492,802.76587L714.75684,820.2535"/>
</g>
<g style="fill:rgb(168,88,55); fill-opacity:1.0; stroke-linejoin: miter">
<path d="M385.55988,795.555L385.55988,795.5555L421.82343,907.1395Q463.13446,845.88727,504.4455,784.635L385.55988,795.555"/>
</g>
<g style="fill:rgb(215,122,55); fill-opacity:1.0; stroke-linejoin: miter">
<path d="M504.46768,784.9303L282.75946,585.0862L282.9117,588.205L367.60175,773.1003L384.85843,795.7223L504.46768,784.9303"/>
</g>
<g style="fill:rgb(239,171,60); fill-opacity:1.0; stroke-linejoin: miter">
<path d="M275.53207,524.73517L275.53207,524.73566L284.63705,586.8696Q283.75864,587.5555,282.88025,588.2414Q277.65234,557.53284,272.42444,526.82434L275.53207,524.73517"/>
</g>
<g style="fill:rgb(208,102,70); fill-opacity:1.0; stroke-linejoin: miter">
<path d="M363.9659,765.04395L363.9659,765.04443L283.53113,587.4228Q239.08154,592.91797,194.63193,598.4131L191.15364,605.7511L363.9659,765.04395"/>
</g>
<g style="fill:rgb(255,217,110); fill-opacity:1.0; stroke-linejoin: miter">
<path d="M283.70593,586.9546L283.70593,586.9551L494.21967,554.8065Q494.39584,554.15515,494.57202,553.5037Q423.56586,501.00525,352.5597,448.50677L283.70593,586.9546"/>
</g>
<g style="fill:rgb(249,204,79); fill-opacity:1.0; stroke-linejoin: miter">
<path d="M283.948,586.8235L283.948,586.824L283.63107,582.0979Q317.49564,516.5457,351.3602,450.99353Q326.77325,508.43826,302.18628,565.883L283.948,586.8235"/>
</g>
<g style="fill:rgb(255,178,92); fill-opacity:1.0; stroke-linejoin: miter">
<path d="M493.83716,554.2767L493.83716,554.27716L504.47287,785.21625Q394.344,685.95355,284.2151,586.69086L493.83716,554.2767"/>
</g>
<g style="fill:rgb(203,148,84); fill-opacity:1.0; stroke-linejoin: miter">
<path d="M623.4397,618.116L623.4397,618.1165L492.40436,554.1837Q582.0519,559.0219,671.69934,563.86017L623.4397,618.116"/>
</g>
<g style="fill:rgb(225,163,88); fill-opacity:1.0; stroke-linejoin: miter">
<path d="M504.10065,785.01605L622.5011,620.2646L620.5541,614.7378L493.7445,554.6856L493.29865,555.61414L504.10065,785.01605"/>
</g>
<g style="fill:rgb(0,0,0); fill-opacity:1.0; stroke-linejoin: miter">
</g>
<g style="fill:rgb(161,90,84); fill-opacity:1.0; stroke-linejoin: miter">
<path d="M766.55945,1026.4772L766.70935,1026.2579Q767.0901,1026.0822,766.5474,1025.7322Q715.96906,1016.6304,665.3907,1007.5285Q665.9208,1008.722,666.4509,1009.9155L766.55945,1026.4772"/>
</g>
<g style="fill:rgb(255,231,160); fill-opacity:1.0; stroke-linejoin: miter">
<path d="M170.43295,146.8018L170.43295,146.8023Q168.77083,146.45995,167.1087,146.11656Q181.94691,164.49591,196.78513,182.87527Q196.89174,180.79883,196.99835,178.7224L170.43295,146.8018"/>
</g>
<g style="fill:rgb(211,154,84); fill-opacity:1.0; stroke-linejoin: miter">
</g>
<g style="fill:rgb(108,103,103); fill-opacity:1.0; stroke-linejoin: miter">
<path d="M89.206085,1107.46L89.206085,1107.4604L91.81561,1106.4476Q63.644844,963.9309,35.474068,821.41425Q33.893948,822.2165,32.313828,823.0187L89.206085,1107.46"/>
</g>
<g style="fill:rgb(105,49,51); fill-opacity:1.0; stroke-linejoin: miter">
<path d="M-114.90434,855.8606L-114.90434,855.86115Q-114.90434,855.86224,-114.90434,855.8606"/>
</g>
<g style="fill:rgb(250,231,149); fill-opacity:1.0; stroke-linejoin: miter">
<path d="M632.1732,174.35728L632.1732,174.35779L631.9138,175.11873Q713.37994,178.85078,794.84607,182.58284Q795.3772,182.19576,795.90826,181.80867L632.1732,174.35728"/>
</g>
<g style="fill:rgb(90,87,115); fill-opacity:1.0; stroke-linejoin: miter">
<path d="M100.12861,1149.9995L100.12861,1150.0Q100.12861,1150.0013,100.12861,1149.9995"/>
</g>
<g style="fill:rgb(212,145,89); fill-opacity:1.0; stroke-linejoin: miter">
<path d="M-4.318924,461.67792L-4.318924,461.6784Q-4.318924,461.6797,-4.318924,461.67792"/>
</g>
<g style="fill:rgb(236,177,104); fill-opacity:1.0; stroke-linejoin: miter">
<path d="M24.997238,786.5288L24.997238,786.5293Q34.483925,775.498,43.97061,764.4657Q15.098824,720.707,-13.772966,676.9483L-26.976723,702.68866L24.997238,786.5288"/>
</g>
<g style="fill:rgb(236,177,104); fill-opacity:1.0; stroke-linejoin: miter">
<path d="M12.791931,706.46716L3.7629433,700.79614Q-12.137825,667.3491,-17.141834,660.40356Q-23.442972,651.06683,-24.623898,650.32477Q-26.962725,647.7506,-29.639736,646.04407Q-34.56008,642.97424,-40.026108,644.06995Q-44.30731,644.54675,-53.919464,651.0126L-17.327053,713.6203L12.791931,706.46716"/>
</g>
<g style="fill:rgb(236,177,104); fill-opacity:1.0; stroke-linejoin: miter">
<path d="M-42.867752,632.10284L-42.867752,632.10333L-82.84659,665.3141Q-76.26968,666.95087,-69.692764,668.58765Q-59.682713,660.852,-49.67266,653.11633L-42.867752,632.10284"/>
</g>
<g style="fill:rgb(208,160,100); fill-opacity:1.0; stroke-linejoin: miter">
<path d="M70.44627,794.8745L70.44627,794.875Q70.44627,794.8762,70.44627,794.8745"/>
</g>
<g style="fill:rgb(90,87,115); fill-opacity:1.0; stroke-linejoin: miter">
<path d="M108.30878,1122.0374L108.30878,1122.0378L89.037155,1107.117Q73.675476,1126.3928,58.313793,1145.6687Q95.39072,1161.8329,132.46765,1177.9972L108.30878,1122.0374"/>
</g>
</g>
<g id="layer4">
<g style="fill:rgb(255,255,255); fill-opacity:1.0; stroke-linejoin: miter">
<path d="M801.4162,176.03714L802.04626,176.75098Q803.7666,179.09386,803.43854,181.87155Q803.09875,184.65909,800.75116,186.56796Q798.4082,188.28831,795.63055,187.96027Q792.843,187.62048,790.93414,185.27289Q789.2138,182.92998,789.5419,180.1523Q789.8817,177.36476,792.22925,175.45589Q794.57214,173.73553,797.34985,174.06358Q798.24426,174.1731,799.09265,174.51067L799.9177,174.90532Q800.72534,175.35703,801.4162,176.03714"/>
</g>
<g style="fill:rgb(255,255,255); fill-opacity:1.0; stroke-linejoin: miter">
<path d="M865.5223,92.56894L830.57556,135.30054L795.6289,178.03212Q797.67145,179.29465,799.71405,180.55719L865.5223,92.56894"/>
</g>
<g style="fill:rgb(255,255,255); fill-opacity:1.0; stroke-linejoin: miter">
<path d="M922.7962,212.86879L922.7962,212.8693L798.7069,180.40334Q798.50775,182.18845,798.30865,183.97357L922.7962,212.86879"/>
</g>
<g style="fill:rgb(255,255,255); fill-opacity:1.0; stroke-linejoin: miter">
<path d="M846.53156,279.6648L841.7307,269.79642Q809.7809,203.92007,798.8804,183.03308Q790.6155,167.08424,796.5052,184.0081L846.53156,279.6648"/>
</g>
<g style="fill:rgb(255,255,255); fill-opacity:1.0; stroke-linejoin: miter">
<path d="M736.98456,228.25722L765.39417,206.76395L793.80383,185.27068Q793.36414,183.75644,792.9244,182.2422L736.98456,228.25722"/>
</g>
<g style="fill:rgb(255,255,255); fill-opacity:1.0; stroke-linejoin: miter">
<path d="M734.0232,178.90932L734.0232,178.91032Q753.0033,180.35155,769.2343,181.49Q779.8853,182.23022,787.2782,182.61104Q790.92377,182.79582,793.44934,182.85701Q795.72485,182.9101,797.082,182.85796Q799.6935,182.7443,799.4158,182.3118Q799.32947,181.79994,794.2301,180.33304L734.0232,178.90932"/>
</g>
<g style="fill:rgb(255,255,255); fill-opacity:1.0; stroke-linejoin: miter">
<path d="M700.78845,94.49571L700.78845,94.496216L792.3957,179.4801Q794.0162,178.74579,795.63666,178.01147L700.78845,94.49571"/>
</g>
</g>
<g id="layer5">
<g style="fill:rgb(178,125,83); fill-opacity:1.0; stroke-linejoin: miter">
<path d="M-311.19766,613.071L-311.19766,613.071L-311.19766,613.07196C-311.19766,615.5,-313.16278,617.47,-315.5908,617.47595C-318.0188,617.48193,-319.99362,615.5217,-320.00565,613.09375L-320.00565,613.09375L-322.52444,104.18403C-322.52472,104.125595,-322.52386,104.06717,-322.52182,104.00877L-322.52182,104.00877C-321.82333,83.97573,-321.3288,60.626495,-307.877,48.70719L-307.877,48.707188C-296.05334,38.23053,-275.24075,37.483,-255.86913,37.483L-255.86913,37.483C-253.20071,37.483,-250.51805,37.500248,-247.85068,37.51738L-247.85144,37.517376L-247.84961,37.517387L-247.81624,37.517723L167.68217,43.26318L167.73582,43.264248C177.7114,43.523792,190.88177,43.55798,198.14955,51.724953L198.14955,51.724953C205.14442,59.58526,205.69336,74.16824,206.32977,85.98591C206.33572,86.096275,206.3375,86.20677,206.33513,86.31727L206.33513,86.31727L201.96324,289.9427L201.96126,290.01077C201.47409,303.19537,200.99417,317.26144,195.92764,330.47247L195.92764,330.47247C190.88448,343.6226,181.3897,355.66513,172.46236,367.04456C172.3924,367.13373,172.31903,367.22015,172.2424,367.30368L172.2424,367.30368L-56.04453,616.1053C-57.688934,617.89746,-60.47483,618.0172,-62.267006,616.3728C-64.05918,614.7284,-64.17898,611.9425,-62.534573,610.1503L-62.534573,610.1503L165.75235,361.3488L165.5324,361.6079C174.66293,349.96945,183.22578,338.99454,187.70364,327.31848L187.70364,327.31848C192.15807,315.70355,192.66226,303.1352,193.15923,289.68552L193.15724,289.7536L197.52913,86.1282L197.53448,86.45956C196.81683,73.13316,196.0117,62.572083,191.56963,57.580406L191.56963,57.580406C187.40045,52.895405,179.05103,52.36967,167.50673,52.06931L167.56038,52.070377L-247.93803,46.32492L-247.90466,46.325256L-247.9065,46.325245L-247.90726,46.32524C-250.58096,46.30807,-253.23225,46.291046,-255.86913,46.291046L-255.86913,46.291046C-276.2613,46.291046,-293.20056,47.471046,-302.03564,55.299603L-302.03564,55.2996C-311.9982,64.12719,-312.96072,82.563484,-313.71915,104.31569L-313.71652,104.140434L-311.19772,613.0502L-320.0057,613.07196L-320.0057,613.071C-320.0057,610.63873,-318.03397,608.667,-315.60168,608.667C-313.1694,608.667,-311.19766,610.63873,-311.19766,613.071 Z"/>
</g>
<g style="fill:rgb(178,125,83); fill-opacity:1.0; stroke-linejoin: miter">
<path d="M-311.1978,613.1533L-311.1978,613.1533L-311.1978,613.15234C-311.18777,610.72437,-313.1447,608.7462,-315.5727,608.7302C-318.00064,608.7142,-319.98358,610.6662,-320.00565,613.09406L-320.00565,613.09406L-324.6316,1121.989C-324.6321,1122.0475,-324.63147,1122.1058,-324.62967,1122.1643L-324.62967,1122.1643C-324.01413,1142.2001,-323.61627,1165.5511,-310.214,1177.526L-310.214,1177.526C-298.43378,1188.0515,-277.62445,1188.8853,-258.253,1188.9655L-258.253,1188.9655C-255.58463,1188.9764,-252.9019,1188.9703,-250.23448,1188.9642L-250.23524,1188.9642L-250.23341,1188.9642L-250.20004,1188.9641L165.31862,1184.9391L165.37227,1184.9382C175.34883,1184.72,188.51924,1184.7404,195.82077,1176.6035L195.82077,1176.6035C202.84813,1168.7722,203.45744,1154.1917,204.14279,1142.3767C204.1492,1142.2664,204.15143,1142.1559,204.14952,1142.0454L204.14952,1142.0454L200.62077,938.4036L200.61908,938.3356C200.1865,925.149,199.76483,911.08105,194.75305,897.8492L194.75305,897.8492C189.76437,884.67834,180.31953,872.59656,171.43939,861.18024C171.3698,861.0908,171.2968,861.004,171.22052,860.92017L171.22052,860.92017L-56.0343,611.17554C-57.671272,609.3765,-60.45665,609.24524,-62.25562,610.88226C-64.05458,612.51917,-64.18591,615.30457,-62.548946,617.1036L-62.548946,617.1036L164.70586,866.8482L164.48698,866.58813C173.56924,878.2643,182.0866,889.2746,186.51605,900.9691L186.51605,900.9691C190.92236,912.60236,191.3745,925.1727,191.81577,938.62427L191.81407,938.5562L195.3428,1142.198L195.34953,1141.8667C194.5767,1155.19,193.72786,1165.7476,189.26515,1170.7208L189.26515,1170.7208C185.0766,1175.3885,176.72508,1175.8798,165.17963,1176.1323L165.23329,1176.1315L-250.28539,1180.1565L-250.252,1180.1562L-250.25383,1180.1562L-250.2546,1180.1562C-252.92834,1180.1624,-255.5797,1180.1685,-258.21655,1180.1575L-258.21655,1180.1575C-278.60852,1180.073,-295.54276,1178.8229,-304.34537,1170.9579L-304.34537,1170.9579C-314.27127,1162.0891,-315.15747,1143.6489,-315.8258,1121.8938L-315.8239,1122.0691L-311.19797,613.17413L-320.0058,613.11584L-320.0058,613.1168C-320.01587,615.5491,-318.0523,617.529,-315.62006,617.53906C-313.1878,617.54913,-311.2079,615.5856,-311.1978,613.1533 Z"/>
</g>
<g style="fill:rgb(178,125,83); fill-opacity:1.0; stroke-linejoin: miter">
<path d="M740.84076,50.6614L740.84076,50.6614L690.3679,50.10929L690.42487,50.109547C679.2928,50.13176,669.3585,50.222107,659.9868,54.92148L659.9868,54.92148C650.38495,59.736256,641.047,69.51062,630.9702,80.146484L630.91364,80.20511L104.24455,615.8891C102.53933,617.62354,99.75095,617.64716,98.01655,615.94196C96.28214,614.23676,96.25848,611.44836,97.9637,609.7139L97.9637,609.7139L624.63275,74.02995L624.5762,74.08858C634.29846,63.82689,644.75946,52.703766,656.0387,47.047874L656.0387,47.047874C667.54816,41.27656,679.5763,41.323135,690.4073,41.301525L690.46423,41.30178L740.9371,41.85389C743.3692,41.880493,745.3193,43.87369,745.29266,46.305817C745.26605,48.73794,743.2729,50.688004,740.84076,50.6614 Z"/>
</g>
<g style="fill:rgb(178,125,83); fill-opacity:1.0; stroke-linejoin: miter">
<path d="M738.5032,1179.9138L738.5032,1179.9138L688.02844,1180.257L688.0854,1180.257C676.9535,1180.1886,667.0197,1180.0571,657.6675,1175.3191L657.6675,1175.3191C648.08563,1170.4646,638.7882,1160.6516,628.7556,1149.9741L628.6993,1149.9153L104.252495,612.05536C102.55446,610.3139,99.76621,610.2787,98.02476,611.97675C96.2833,613.6747,96.24809,616.463,97.94613,618.20447L97.94613,618.20447L622.3929,1156.0643L622.33655,1156.0055C632.01624,1166.3074,642.4311,1177.4736,653.68677,1183.1763L653.68677,1183.1763C665.1723,1188.9951,677.2005,1188.9984,688.0314,1189.0648L688.0883,1189.0648L738.563,1188.7217C740.9952,1188.7051,742.9535,1186.72,742.93695,1184.2878C742.9204,1181.8556,740.9353,1179.8973,738.5032,1179.9138 Z"/>
</g>
<g style="fill:rgb(178,125,83); fill-opacity:1.0; stroke-linejoin: miter">
<path d="M740.95325,41.939514L740.95325,41.939514L1126.0616,46.51619L1125.8807,46.517754C1127.5413,46.469288,1129.2705,46.418545,1131.149,46.418545L1131.149,46.418545C1133.416,46.418545,1135.8969,46.492138,1138.8245,46.726482L1138.8245,46.72648C1143.4951,47.10034,1151.7573,47.9898,1155.8352,51.495564L1155.8351,51.49546C1156.515,52.07997,1157.1094,52.75052,1157.5955,53.507668L1157.595,53.506836C1157.9698,54.090492,1158.268,54.706337,1158.4913,55.344593L1158.4915,55.344795C1160.0377,59.763443,1157.7917,64.350845,1155.8248,67.43889L1155.8248,67.438995C1152.9723,71.91696,1148.5448,76.48062,1144.5719,80.59952L1144.4916,80.68062L1144.4901,80.68206L1144.564,80.60764L624.2266,617.79114C622.53436,619.5382,619.7463,619.58264,617.9992,617.8904C616.25214,616.1981,616.2077,613.41003,617.89996,611.66296L617.89996,611.66296L1138.2373,74.47941L1138.3112,74.40499L1138.3126,74.40355L1138.2323,74.48465C1142.4028,70.16082,1146.1191,66.28088,1148.3959,62.70679L1148.3959,62.706894C1150.3176,59.68977,1150.2278,58.397007,1150.1777,58.254005L1150.1779,58.254208C1150.1793,58.258232,1150.1819,58.263706,1150.1841,58.267166L1150.1836,58.266335C1150.1876,58.272594,1150.1686,58.239494,1150.0934,58.174812L1150.0933,58.17471C1148.6348,56.920902,1143.7106,55.953804,1138.1216,55.50644L1138.1216,55.506435C1135.455,55.292984,1133.2103,55.22658,1131.149,55.22658L1131.149,55.22658C1129.4177,55.22658,1127.8119,55.273182,1126.1378,55.322044C1126.0775,55.323803,1126.0172,55.324326,1125.9569,55.32361L1125.9569,55.32361L740.84863,50.746933C738.4165,50.71803,736.4683,48.722992,736.49725,46.29089C736.5262,43.858788,738.5211,41.91061,740.95325,41.939514 Z"/>
</g>
<g style="fill:rgb(178,125,83); fill-opacity:1.0; stroke-linejoin: miter">
<path d="M738.57935,1188.6364L738.57935,1188.6364L1123.7034,1185.6543L1123.5225,1185.652C1125.1827,1185.7073,1126.9117,1185.7653,1128.7903,1185.773L1128.7903,1185.773C1131.0573,1185.7823,1133.5385,1185.7191,1136.4669,1185.4968L1136.4669,1185.4968C1141.1392,1185.1423,1149.405,1184.2871,1153.4973,1180.7982L1153.4972,1180.7983C1154.1796,1180.2167,1154.7766,1179.5486,1155.2659,1178.7935L1155.2654,1178.7943C1155.6427,1178.2122,1155.9434,1177.5975,1156.1693,1176.9602L1156.1694,1176.9601C1157.734,1172.5479,1155.5071,1167.9512,1153.5529,1164.855L1153.5529,1164.8549C1150.7189,1160.3651,1146.3104,1155.7832,1142.3546,1151.648L1142.2747,1151.5664L1142.2732,1151.5651L1142.3467,1151.6398L624.23804,612.3064C622.55304,610.5523,619.76514,610.49634,618.0111,612.18134C616.257,613.8664,616.20105,616.65424,617.88605,618.4083L617.88605,618.4083L1135.9948,1157.7417L1136.0684,1157.8164L1136.0698,1157.8179L1135.9897,1157.7365C1140.1423,1162.0775,1143.8425,1165.9728,1146.1045,1169.5563L1146.1045,1169.5562C1148.0138,1172.5813,1147.9186,1173.8737,1147.8679,1174.0165L1147.868,1174.0162C1147.8695,1174.0122,1147.8721,1174.0067,1147.8743,1174.0033L1147.8738,1174.0042C1147.8779,1173.9979,1147.8586,1174.0309,1147.7832,1174.0952L1147.7831,1174.0953C1146.3195,1175.3431,1141.3912,1176.2898,1135.8005,1176.7141L1135.8005,1176.7141C1133.133,1176.9165,1130.8881,1176.9735,1128.8268,1176.9651L1128.8268,1176.9651C1127.0955,1176.9579,1125.4899,1176.9047,1123.8159,1176.8489C1123.7557,1176.8468,1123.6954,1176.8461,1123.6351,1176.8466L1123.6351,1176.8466L738.5112,1179.8286C736.079,1179.8474,734.1225,1181.8344,734.14136,1184.2666C734.1602,1186.6987,736.1471,1188.6552,738.57935,1188.6364 Z"/>
</g>
<g style="fill:rgb(210,95,42); fill-opacity:1.0; stroke-linejoin: miter">
<path d="M-567.70215,2365.271L-567.70215,2365.2715Q-567.70215,2365.2727,-567.70215,2365.271"/>
</g>
<g style="fill:rgb(210,95,42); fill-opacity:1.0; stroke-linejoin: miter">
<path d="M-560.4469,-1140.0927L-560.4469,-1140.0931Q-560.4469,-1140.0944,-560.4469,-1140.0927"/>
</g>
<g style="fill:rgb(210,95,42); fill-opacity:1.0; stroke-linejoin: miter">
</g>
<g style="fill:rgb(210,95,42); fill-opacity:1.0; stroke-linejoin: miter">
</g>
</g>
</svg>